<?xml version="1.0" standalone="no"?><!DOCTYPE svg PUBLIC "-//W3C//DTD SVG 1.1//EN" "http://www.w3.org/Graphics/SVG/1.1/DTD/svg11.dtd"><svg t="1667037869706" class="icon" viewBox="0 0 1024 1024" version="1.1" xmlns="http://www.w3.org/2000/svg" p-id="8144" xmlns:xlink="http://www.w3.org/1999/xlink" width="200" height="200"><path d="M940.9 213.3h-319v119c19.2-14.6 42.3-22 69.3-22V426H806c-0.6 32.4-11.8 59.8-33.6 81.9s-49.2 33.5-81.7 34.2c-24.6-0.5-48.4-8.5-68.3-23v79.5h250.9v39h-251v48.3H873v38.5H622.1v87.4h319c12.9 0 19-6.8 19-20.1V232.3c0-12.8-6.1-19-19-19h-0.2zM709.2 406.9V290.3c32.5 0.7 59.7 12 81.7 34 21.9 22 33.3 49.5 33.8 82.7l-115.5-0.1z m-336.9 2c-1.5-6.7-4.9-12.8-9.8-17.6-5.1-4.5-11.4-7.7-18-9.2-8.4-2.3-17.1-3.4-25.8-3.4l-26.9 0.5v112h1c9.7 0.6 20 0.6 30.8 0 10.6-0.5 20.9-3.4 30.2-8.4 11.7-8.4 18.7-19.6 20.9-34.1 2.2-14.6 1.5-28.6-2.4-41.5v1.7zM64 178.1v670.1l511.1 88.3V87.4L64 178.1z m381.3 302c-14 32.4-34.9 53.2-62.9 62.2-29.3 9.1-60.1 12.6-90.7 10.4v127.8l-67.2-7.8V321.6l106.8-5.6c19.7-1.3 39.5 1 58.5 6.7 19.2 5.7 34.4 17.1 45.7 34.4 11.2 17.2 17.5 37.2 19 59.9 1.6 21.5-1.6 43-9.2 63.1z" fill="#D24825" p-id="8145"></path></svg>