<?xml version="1.0" standalone="no"?><!DOCTYPE svg PUBLIC "-//W3C//DTD SVG 1.1//EN" "http://www.w3.org/Graphics/SVG/1.1/DTD/svg11.dtd"><svg t="1667037848257" class="icon" viewBox="0 0 1024 1024" version="1.1" xmlns="http://www.w3.org/2000/svg" p-id="7197" xmlns:xlink="http://www.w3.org/1999/xlink" width="200" height="200"><path d="M960.2 203.3v617.9c0 5.3-1.9 9.5-5.6 12.9-3.6 3.4-8.5 5.3-13.4 5.2H621.6v-85.7h260.7v-39h-261v-47.8H882v-39H621.5v-48.2h260.6v-38.5H621.5v-48.3h260.6v-39H621.5V406h260.6v-38.9H621.5v-48.7h260.6v-37.1H621.5v-96.8h319.7c5.6 0 10.1 1.8 13.4 5.6 3.9 3.6 5.6 8.1 5.6 13.2zM573.7 87.8v848.5L64 848.1V178.4l509.7-90.7v0.1z m-76.9 250.5l-63.8 3.9-40.9 253.4h-0.9c-2-12-9.5-54-23-125.7L344.3 348l-59.9 3-24 118.9c-8.2 40.2-16.2 80.5-23.9 120.8h-0.5l-36.4-233.4-54.9 2.9 58.8 294.4 61 3.9 23-114.6c13.4-67.2 21.3-106.3 23-117h1.7c2.3 11.4 9.6 51.3 23 119.9l23 117.9 66.1 3.9 73.9-330.5-1.4 0.2z" fill="#2B579B" p-id="7198"></path></svg>