<?xml version="1.0" standalone="no"?><!DOCTYPE svg PUBLIC "-//W3C//DTD SVG 1.1//EN" "http://www.w3.org/Graphics/SVG/1.1/DTD/svg11.dtd"><svg t="1667037858051" class="icon" viewBox="0 0 1024 1024" version="1.1" xmlns="http://www.w3.org/2000/svg" p-id="7512" xmlns:xlink="http://www.w3.org/1999/xlink" width="200" height="200"><path d="M958.4 444.2v134.2c0 5.2-1.9 9.6-5.6 13.4-3.7 3.7-8.2 5.6-13.3 5.6h-29.1V425.1h29.1c5.2 0 9.6 1.9 13.3 5.6 3.6 3.5 5.6 8.4 5.6 13.5z m-19 173c5.2 0 9.6 1.9 13.3 5.6 3.7 3.7 5.6 8.2 5.6 13.3v134.7c0 5.2-1.9 9.6-5.6 13.4-3.5 3.5-8.3 5.5-13.3 5.5h-29.1V617.2h29.1z m0-384.3c5.2 0 10 1.9 14.3 5.6 4.1 3.3 6.5 8.2 6.6 13.4v134.2c0.1 5.3-2.4 10.4-6.6 13.6-4.1 3.3-9.1 5-14.3 5h-48.1v414c0 5-2 9-5.9 12.4-3.9 2.9-8.7 4.5-13.6 4.5H621.5V751H816v-40.4H621.5v-47.5H816V625H621.5v-48.7H816v-37.5H621.5v-47.6H816v-37.6H621.5v-48.7H816v-38.1H621.5v-47.6H816v-39.8H621.5v-94.6h257.2c0.6 0 2.8 1.6 6.3 5s5.8 8 6.3 12.8V233l48.1-0.1zM573.7 88.6v846.7L64 847.4V178.9l509.7-90.3z m-145.4 251l-59.8 3.9v111.3c-0.7 65.2-0.7 102.8 0 112.8L249.3 350.3l-60.8 2.4V661l47.6 3.9V437.4l128.5 234 63.7 3.9V339.6z" fill="#80387B" p-id="7513"></path></svg>